<?xml version="1.0" encoding="utf-8"?>
<!-- Generator: Adobe Illustrator 25.3.1, SVG Export Plug-In . SVG Version: 6.00 Build 0)  -->
<svg version="1.1" id="Capa_1" xmlns="http://www.w3.org/2000/svg" xmlns:xlink="http://www.w3.org/1999/xlink" x="0px" y="0px"
	 viewBox="0 0 512 512" style="enable-background:new 0 0 512 512;" xml:space="preserve">
<style type="text/css">
	.st0{fill:#28286E;}
</style>
<path class="st0" d="M488,272.1C488,395.5,387.5,496,264.1,496c-48.9,0-95.2-15.6-134.2-44.9c-14.1-10.6-17-30.7-6.4-44.8
	c10.6-14.1,30.7-17,44.8-6.4c27.8,20.9,61,31.9,95.9,31.9c88.1,0,159.8-71.7,159.8-159.8s-71.7-159.8-159.8-159.8
	c-26.7,0-52.6,6.8-75.5,19.1c-21.7,11.7-13.4,44.7,11.3,44.7h0c17.7,0,32,14.3,32,32c0,17.3-13.6,31.3-30.7,32c-0.8,0-1.7,0-2.5-0.1
	C182.9,238.6,24,224.9,24,208.1c0,0,14.3-176,32-176s32,14.3,32,32v13.1c0,19.7,22.8,31,38.3,18.8c38.6-30.4,86.6-47.7,137.8-47.7
	C387.5,48.2,488,148.7,488,272.1z"/>
</svg>
