<?xml version="1.0" encoding="utf-8"?>
<!-- Generator: Adobe Illustrator 25.3.1, SVG Export Plug-In . SVG Version: 6.00 Build 0)  -->
<svg version="1.1" id="Capa_1" xmlns="http://www.w3.org/2000/svg" xmlns:xlink="http://www.w3.org/1999/xlink" x="0px" y="0px"
	 viewBox="0 0 640 512" style="enable-background:new 0 0 640 512;" xml:space="preserve">
<style type="text/css">
	.st0{fill:#28316E;}
</style>
<path class="st0" d="M0,342.9h64c17.8,0,32-14.3,32-32V87.3H0V342.9z M48,279.1c8.8,0,16,7.1,16,16c0,8.7-7.2,16-16,16
	s-16-7.3-16-16C32,286.2,39.2,279.1,48,279.1z M348.8,23c-7.9,0-15.7,3-21.5,8.3l-98.4,90c-0.1,0.2-16.6,40.9-2.4,56.4
	c1.2,1.3,2.6,2.4,4,3.5c13.7,10.3,36.9,12.7,52.1-0.8c0.2-0.1,0.3-0.1,0.4-0.2l79.9-73.1c6.5-5.9,16.8-5.5,22.6,1
	c6,6.5,5.5,16.6-1,22.6l-26.1,23.9L504,272.7c2.9,2.5,5.5,5,7.9,7.7V86.1c-41-41-96.5-63.9-154.4-63.9L348.8,23z M334.6,176.4
	l-30,27.5c-29.8,27.1-75.2,24.5-101.8-4.4c-26.8-29.3-24.7-74.8,4.5-101.6L289.1,23h-6.6c-57.8,0-113.4,23.1-154.3,63.9L128,310.8
	h18.2l90.5,81.8c27.5,22.4,67.8,18.1,90-9.2l18.1,15.2c15.9,12.1,39.4,10.5,52.4-5.4l31.4-38.6l5.4,4.5c13.8,11,33.9,9,45-4.7
	l9.5-11.8c11.1-13.8,9-33.8-4.7-44.9L334.6,176.4z M544,87.4V311c0,17.6,14.2,32,31.1,32H640V87.1L544,87.4z M592,311
	c-8.8,0-16-7.2-16-16c0-8.9,7.2-16,16-16s16,7.2,16,16.1C608,303.8,600.8,311,592,311z"/>
</svg>
