<?xml version="1.0" encoding="utf-8"?>
<!-- Generator: Adobe Illustrator 25.3.1, SVG Export Plug-In . SVG Version: 6.00 Build 0)  -->
<svg version="1.1" id="Capa_1" xmlns="http://www.w3.org/2000/svg" xmlns:xlink="http://www.w3.org/1999/xlink" x="0px" y="0px"
	 viewBox="0 0 640 512" style="enable-background:new 0 0 640 512;" xml:space="preserve">
<style type="text/css">
	.st0{fill:#28316E;}
	.st1{fill:#28316E;stroke:#000000;stroke-width:2;stroke-miterlimit:10;}
	.st2{fill:#28316E;stroke:#464646;stroke-width:2;stroke-miterlimit:10;}
</style>
<path class="st0" d="M163.4,384.8h28.9c8,0,14.4-14.3,14.4-32V129.2h-43.3V384.8z M185.1,321c4,0,7.2,7.1,7.2,16
	c0,8.7-3.3,16-7.2,16c-4,0-7.2-7.3-7.2-16C177.9,328.1,181.2,321,185.1,321z M321,64.9c-3.6,0-7.1,3-9.7,8.3l-44.4,90
	c0,0.2-7.5,40.9-1.1,56.4c0.5,1.3,1.2,2.4,1.8,3.5c6.2,10.3,16.7,12.7,23.5-0.8c0.1-0.1,0.1-0.1,0.2-0.2l36.1-73.1
	c2.9-5.9,7.6-5.5,10.2,1c2.7,6.5,2.5,16.6-0.5,22.6l-11.8,23.9L391,314.6c1.3,2.5,2.5,5,3.6,7.7V128c-18.5-41-43.6-63.9-69.7-63.9
	L321,64.9z M314.5,218.3L301,245.8c-13.5,27.1-34,24.5-46-4.4c-12.1-29.3-11.2-74.8,2-101.6L294,64.9h-3
	c-26.1,0-51.2,23.1-69.7,63.9l-0.1,223.9h8.2l40.9,81.8c12.4,22.4,30.6,18.1,40.6-9.2l8.2,15.2c7.2,12.1,17.8,10.5,23.7-5.4
	l14.2-38.6l2.4,4.5c6.2,11,15.3,9,20.3-4.7l4.3-11.8c5-13.8,4.1-33.8-2.1-44.9L314.5,218.3z M409.1,129.3v223.6c0,17.6,6.4,32,14,32
	h29.3V129L409.1,129.3z M430.8,352.9c-4,0-7.2-7.2-7.2-16c0-8.9,3.3-16,7.2-16c4,0,7.2,7.2,7.2,16.1
	C438,345.7,434.7,352.9,430.8,352.9z"/>
<rect x="499" y="40.5" class="st1" width="88" height="88"/>
<rect x="499" y="148.7" class="st2" width="88" height="88"/>
<rect x="499" y="256" class="st2" width="88" height="88"/>
<rect x="499" y="363.3" class="st2" width="88" height="88"/>
<rect x="20" y="40.5" class="st2" width="88" height="88"/>
<rect x="20" y="148.7" class="st2" width="88" height="88"/>
<rect x="20" y="256" class="st2" width="88" height="88"/>
<rect x="20" y="363.3" class="st2" width="88" height="88"/>
</svg>
